<?xml version="1.0" ?><!DOCTYPE svg  PUBLIC '-//W3C//DTD SVG 1.1//EN'  'http://www.w3.org/Graphics/SVG/1.1/DTD/svg11.dtd'><svg height="512px" style="enable-background:new 0 0 512 512;" version="1.1" viewBox="0 0 512 512" width="512px" xml:space="preserve" xmlns="http://www.w3.org/2000/svg" xmlns:xlink="http://www.w3.org/1999/xlink"><g id="android__x2C__mobile__x2C__os__x2C_"><g><path d="M492.871,374.948c0,65.451-53.089,118.502-118.585,118.502H137.149    c-65.477,0-118.546-53.051-118.546-118.502V138.009c0-65.451,53.069-118.483,118.546-118.483h237.137    c65.496,0,118.585,53.032,118.585,118.483V374.948z" style="fill:#85BF00;"/><path d="M295.938,133.202l3.279-4.86l3.243-4.763l7.294-10.722c0.869-1.33,0.522-3.104-0.811-3.991    c-1.351-0.868-3.165-0.521-4.052,0.81l-7.816,11.494l-3.279,4.84l-3.34,4.898c-10.518-4.031-22.308-6.267-34.717-6.267    c-12.409,0-24.181,2.236-34.737,6.267l-3.338-4.898l-3.261-4.84l-7.815-11.494c-0.888-1.311-2.702-1.678-4.053-0.81    c-1.331,0.887-1.697,2.661-0.792,3.991l7.276,10.722l3.242,4.763l3.3,4.86c-24.798,11.319-41.572,32.783-41.572,57.37h163.496    C337.484,165.985,320.696,144.521,295.938,133.202z M220.714,167.643c-4.845,0-8.762-3.857-8.762-8.601    c0-4.763,3.917-8.601,8.762-8.601c4.843,0,8.742,3.837,8.742,8.601C229.456,163.786,225.557,167.643,220.714,167.643z     M290.766,167.643c-4.845,0-8.742-3.857-8.742-8.601c0-4.763,3.897-8.601,8.742-8.601c4.843,0,8.762,3.837,8.762,8.601    C299.527,163.786,295.608,167.643,290.766,167.643z" style="fill:#FFFFFF;"/><path d="M337.484,328.165V228.003v-11.667v-14.309h-1.272h-160.94h-1.283v14.309v11.667v100.162    c0,10.009,8.289,18.165,18.512,18.165h13.334c-0.443,1.505-0.714,3.105-0.714,4.764v0.945v5.747v29.62    c0,9.488,7.855,17.182,17.542,17.182c9.667,0,17.522-7.693,17.522-17.182v-29.62v-5.747v-0.945c0-1.658-0.27-3.259-0.714-4.764    h32.517c-0.425,1.505-0.674,3.105-0.674,4.764v0.945v5.747v29.62c0,9.488,7.854,17.182,17.521,17.182    c9.65,0,17.504-7.693,17.504-17.182v-29.62v-5.747v-0.945c0-1.658-0.25-3.259-0.694-4.764h13.355    C329.187,346.33,337.484,338.174,337.484,328.165z" style="fill:#FFFFFF;"/><path d="M127.288,219.229v73.589c0,9.487,7.834,17.183,17.522,17.183c9.659,0,17.512-7.695,17.512-17.183    v-73.589c0-9.507-7.854-17.201-17.512-17.201C135.122,202.027,127.288,209.721,127.288,219.229z" style="fill:#FFFFFF;"/><path d="M349.161,219.229v73.589c0,9.487,7.834,17.183,17.503,17.183c9.688,0,17.521-7.695,17.521-17.183    v-73.589c0-9.507-7.834-17.201-17.521-17.201C356.995,202.027,349.161,209.721,349.161,219.229z" style="fill:#FFFFFF;"/><path d="M295.938,133.202l3.279-4.86l3.243-4.763l7.294-10.722c0.869-1.33,0.522-3.104-0.811-3.991    c-1.351-0.868-3.165-0.521-4.052,0.81l-7.816,11.494l-3.279,4.84l-3.34,4.898c-10.518-4.031-22.308-6.267-34.717-6.267    c-12.409,0-24.181,2.236-34.737,6.267l-3.338-4.898l-3.261-4.84l-7.815-11.494c-0.888-1.311-2.702-1.678-4.053-0.81    c-1.331,0.887-1.697,2.661-0.792,3.991l7.276,10.722l3.242,4.763l3.3,4.86c-24.798,11.319-41.572,32.783-41.572,57.37h163.496    C337.484,165.985,320.696,144.521,295.938,133.202z M220.714,167.643c-4.845,0-8.762-3.857-8.762-8.601    c0-4.763,3.917-8.601,8.762-8.601c4.843,0,8.742,3.837,8.742,8.601C229.456,163.786,225.557,167.643,220.714,167.643z     M290.766,167.643c-4.845,0-8.742-3.857-8.742-8.601c0-4.763,3.897-8.601,8.742-8.601c4.843,0,8.762,3.837,8.762,8.601    C299.527,163.786,295.608,167.643,290.766,167.643z" style="fill:#FFFFFF;"/><path d="M337.484,328.165V228.003v-11.667v-14.309h-1.272h-160.94h-1.283v14.309v11.667v100.162    c0,10.009,8.289,18.165,18.512,18.165h13.334c-0.443,1.505-0.714,3.105-0.714,4.764v0.945v5.747v29.62    c0,9.488,7.855,17.182,17.542,17.182c9.667,0,17.522-7.693,17.522-17.182v-29.62v-5.747v-0.945c0-1.658-0.27-3.259-0.714-4.764    h32.517c-0.425,1.505-0.674,3.105-0.674,4.764v0.945v5.747v29.62c0,9.488,7.854,17.182,17.521,17.182    c9.65,0,17.504-7.693,17.504-17.182v-29.62v-5.747v-0.945c0-1.658-0.25-3.259-0.694-4.764h13.355    C329.187,346.33,337.484,338.174,337.484,328.165z" style="fill:#FFFFFF;"/><path d="M127.288,219.229v73.589c0,9.487,7.834,17.183,17.522,17.183c9.659,0,17.512-7.695,17.512-17.183    v-73.589c0-9.507-7.854-17.201-17.512-17.201C135.122,202.027,127.288,209.721,127.288,219.229z" style="fill:#FFFFFF;"/><path d="M349.161,219.229v73.589c0,9.487,7.834,17.183,17.503,17.183c9.688,0,17.521-7.695,17.521-17.183    v-73.589c0-9.507-7.834-17.201-17.521-17.201C356.995,202.027,349.161,209.721,349.161,219.229z" style="fill:#FFFFFF;"/><path d="M307.323,108.389c0.557,0,1.12,0.155,1.62,0.476c1.333,0.887,1.68,2.661,0.811,3.991l-7.294,10.722    l-3.243,4.763l-3.279,4.86c24.759,11.319,41.547,32.783,41.547,57.37H173.988c0-24.587,16.774-46.051,41.572-57.37l-3.3-4.86    l-3.242-4.763l-7.276-10.722c-0.906-1.33-0.54-3.104,0.792-3.991c0.497-0.319,1.056-0.471,1.608-0.471    c0.952,0,1.884,0.452,2.445,1.281l7.815,11.494l3.261,4.84l3.338,4.898c10.557-4.031,22.329-6.267,34.737-6.267    c12.409,0,24.199,2.236,34.717,6.267l3.34-4.898l3.279-4.84l7.816-11.494C305.45,108.837,306.376,108.389,307.323,108.389     M290.766,167.643c4.843,0,8.762-3.857,8.762-8.601c0-4.763-3.919-8.601-8.762-8.601c-4.845,0-8.742,3.837-8.742,8.601    C282.023,163.786,285.921,167.643,290.766,167.643 M220.714,167.643c4.843,0,8.742-3.857,8.742-8.601    c0-4.763-3.898-8.601-8.742-8.601c-4.845,0-8.762,3.837-8.762,8.601C211.952,163.786,215.869,167.643,220.714,167.643     M307.323,98.512c-4.275,0-8.239,2.105-10.615,5.633l-7.8,11.47l-2.394,3.532c-9.804-2.911-20.123-4.383-30.775-4.383    c-10.636,0-20.958,1.473-30.787,4.387l-2.358-3.5l-7.839-11.528c-2.372-3.503-6.343-5.604-10.612-5.604    c-2.469,0-4.871,0.705-6.947,2.038c-0.046,0.029-0.092,0.06-0.138,0.09c-2.862,1.907-4.8,4.81-5.456,8.174    c-0.654,3.356,0.047,6.764,1.977,9.597l7.267,10.708l0.364,0.535c-23.139,14.168-37.098,36.705-37.098,60.913    c0,5.455,4.422,9.877,9.877,9.877h163.496c5.455,0,9.877-4.422,9.877-9.877c0-24.2-13.957-46.74-37.09-60.916l0.353-0.518    l7.297-10.726c0.034-0.051,0.068-0.102,0.102-0.153c3.821-5.849,2.203-13.752-3.608-17.618c-0.043-0.029-0.086-0.057-0.13-0.085    C312.203,99.219,309.796,98.512,307.323,98.512L307.323,98.512z M337.484,202.027v14.309v11.667v100.162    c0,10.009-8.298,18.165-18.485,18.165h-13.355c0.444,1.505,0.694,3.105,0.694,4.764v0.945v5.747v29.62    c0,9.488-7.854,17.182-17.504,17.182c-9.667,0-17.521-7.693-17.521-17.182v-29.62v-5.747v-0.945c0-1.658,0.249-3.259,0.674-4.764    H239.47c0.444,1.505,0.714,3.105,0.714,4.764v0.945v5.747v29.62c0,9.488-7.854,17.182-17.522,17.182    c-9.688,0-17.542-7.693-17.542-17.182v-29.62v-5.747v-0.945c0-1.658,0.271-3.259,0.714-4.764H192.5    c-10.223,0-18.512-8.156-18.512-18.165V228.003v-11.667v-14.309h1.283h160.94H337.484 M337.484,192.15h-1.272h-160.94h-1.283    c-5.455,0-9.877,4.422-9.877,9.877v14.309v11.667v100.162c0,15.463,12.735,28.042,28.389,28.042h2.743v1.579v29.62    c0,14.92,12.3,27.059,27.419,27.059c15.108,0,27.399-12.139,27.399-27.059v-29.62v-1.579h11.375v1.579v29.62    c0,14.92,12.29,27.059,27.397,27.059c15.098,0,27.381-12.139,27.381-27.059v-29.62v-1.579h2.784    c15.639,0,28.362-12.579,28.362-28.042V228.003v-11.667v-14.309C347.361,196.572,342.939,192.15,337.484,192.15L337.484,192.15z     M144.81,202.027c9.659,0,17.512,7.694,17.512,17.201v73.589c0,9.487-7.854,17.183-17.512,17.183    c-9.688,0-17.522-7.695-17.522-17.183v-73.589C127.288,209.721,135.122,202.027,144.81,202.027 M144.81,192.15    c-15.108,0-27.399,12.147-27.399,27.078v73.589c0,14.921,12.291,27.06,27.399,27.06c15.103,0,27.389-12.139,27.389-27.06v-73.589    C172.199,204.297,159.913,192.15,144.81,192.15L144.81,192.15z M366.664,202.027c9.688,0,17.521,7.694,17.521,17.201v73.589    c0,9.487-7.834,17.183-17.521,17.183c-9.669,0-17.503-7.695-17.503-17.183v-73.589    C349.161,209.721,356.995,202.027,366.664,202.027 M366.664,192.15c-15.098,0-27.38,12.147-27.38,27.078v73.589    c0,14.921,12.282,27.06,27.38,27.06c15.107,0,27.398-12.139,27.398-27.06v-73.589C394.063,204.297,381.771,192.15,366.664,192.15    L366.664,192.15z" style="fill:#436000;"/><path d="M364.039,478.061H147.415c-62.448,0-113.253-50.818-113.253-113.283V148.179    c0-62.454,50.805-113.263,113.253-113.263h216.624c62.459,0,113.272,50.81,113.272,113.263v216.599    C477.312,427.242,426.498,478.061,364.039,478.061z M147.415,44.818c-56.988,0-103.351,46.367-103.351,103.36v216.599    c0,57.004,46.363,103.381,103.351,103.381h216.624c56.998,0,103.37-46.377,103.37-103.381V148.179    c0-56.993-46.372-103.36-103.37-103.36H147.415z" style="fill:#436000;"/></g></g><g id="Layer_1"/></svg>