<?xml version="1.0" encoding="UTF-8"?><!DOCTYPE svg PUBLIC "-//W3C//DTD SVG 1.1//EN" "http://www.w3.org/Graphics/SVG/1.1/DTD/svg11.dtd"><svg xmlns="http://www.w3.org/2000/svg" xmlns:xlink="http://www.w3.org/1999/xlink" version="1.1" id="Layer_1" x="0px" y="0px" width="64px" height="64px" viewBox="0 0 64 64" xml:space="preserve"><g fill="#57C927"><path d="M15 20v27.208C15 49.333 16.276 51 18.463 51h2.855c-.098 0-.318.721-.318 1.075v7.706c0 2.014 1.931 3.647 4 3.647 2.07 0 4-1.633 4-3.647v-7.706c0-.354-.386-1.075-.481-1.075h6.964c-.095 0-.483.721-.483 1.075v7.706c0 2.014 1.927 3.647 3.996 3.647 2.074 0 4.004-1.633 4.004-3.647v-7.706c0-.354-.219-1.075-.317-1.075h2.859C47.729 51 49 49.333 49 47.208V20H14.771 15z"/><path d="M8 20.443c-2.071 0-4 1.634-4 3.647v15.615c0 2.014 1.929 3.647 4 3.647 2.07 0 4-1.633 4-3.647V24.091c0-2.014-1.93-3.648-4-3.648z"/><path d="M40.609 5.828l.698-1.024.699-1.012 1.557-2.275a.594.594 0 0 0-.173-.843.628.628 0 0 0-.863.17L40.15 4.307l-.715 1.043C37.176 4.496 34.659 4.02 32 4.02c-2.653 0-5.175.477-7.434 1.33l-.711-1.042-.703-1.023-1.67-2.439a.639.639 0 0 0-.869-.17.6.6 0 0 0-.174.843l1.556 2.276.699 1.013.702 1.021C18.092 8.234 14.503 13 14.503 18h34.995c0-5-3.588-9.766-8.889-12.172zm-16.108 7.317c-1.039 0-1.876-.817-1.876-1.826 0-1.009.837-1.822 1.876-1.822 1.036 0 1.875.813 1.875 1.822 0 1.009-.838 1.826-1.875 1.826zm15 0c-1.038 0-1.877-.817-1.877-1.826 0-1.009.839-1.822 1.877-1.822 1.036 0 1.875.813 1.875 1.822 0 1.009-.839 1.826-1.875 1.826z"/></g><path fill="#1CB71C" d="M8.178 28.595C6.619 28.595 5 27.124 4 24.791v14.915c0 2.014 1.929 3.647 4 3.647 2.07 0 4-1.633 4-3.647V25.569c-1 1.874-2.446 3.026-3.822 3.026z"/><path fill="#57C927" d="M56 20.443c-2.071 0-4 1.634-4 3.647v15.615c0 2.014 1.929 3.647 4 3.647 2.07 0 4-1.633 4-3.647V24.091c0-2.014-1.93-3.648-4-3.648z"/><path fill="#1CB71C" d="M56.178 28.595c-1.559 0-3.178-1.471-4.178-3.804v14.915c0 2.014 1.929 3.647 4 3.647 2.07 0 4-1.633 4-3.647V25.569c-1 1.874-2.446 3.026-3.822 3.026z"/><path fill="#1CB71C" d="M32 22.988c-7.91 0-15-.915-17-2.214v26.434C15 49.333 16.276 51 18.463 51h2.855c-.098 0-.318.721-.318 1.075v7.706c0 2.014 1.931 3.647 4 3.647 2.07 0 4-1.633 4-3.647v-7.706c0-.354-.386-1.075-.481-1.075h6.964c-.095 0-.483.721-.483 1.075v7.706c0 2.014 1.927 3.647 3.996 3.647 2.074 0 4.004-1.633 4.004-3.647v-7.706c0-.354-.219-1.075-.317-1.075h2.859C47.729 51 49 49.333 49 47.208V20.773c-2 1.299-9.089 2.215-17 2.215z"/><path fill="#1CB71C" d="M41.376 11.318c0 1.009-.839 1.826-1.875 1.826-1.038 0-1.877-.817-1.877-1.826 0-.547.251-1.03.642-1.364-1.977-.33-4.08-.511-6.266-.511s-4.288.181-6.266.511c.392.333.643.817.643 1.364 0 1.009-.839 1.826-1.875 1.826-1.039 0-1.876-.817-1.876-1.826 0-.258.057-.503.156-.726-2.998.788-5.574 1.938-7.518 3.351-.49 1.287-.761 3.057-.761 4.057h34.995c0-1-.271-2.769-.76-4.055-1.943-1.415-4.52-2.567-7.516-3.355.098.223.154.471.154.728z"/><path fill="#049E42" d="M32 33.423c-6.737 0-13-1.329-17-3.507v17.292C15 49.333 16.276 51 18.463 51h2.855c-.098 0-.318.721-.318 1.075v7.706c0 2.014 1.931 3.647 4 3.647 2.07 0 4-1.633 4-3.647v-7.706c0-.354-.386-1.075-.481-1.075h6.964c-.095 0-.483.721-.483 1.075v7.706c0 2.014 1.927 3.647 3.996 3.647 2.074 0 4.004-1.633 4.004-3.647v-7.706c0-.354-.219-1.075-.317-1.075h2.859C47.729 51 49 49.333 49 47.208V29.916c-4 2.179-10.263 3.507-17 3.507z"/><metadata><rdf:RDF xmlns:rdf="http://www.w3.org/1999/02/22-rdf-syntax-ns#" xmlns:rdfs="http://www.w3.org/2000/01/rdf-schema#" xmlns:dc="http://purl.org/dc/elements/1.1/"><rdf:Description about="https://iconscout.com/legal#licenses" dc:title="android" dc:description="android" dc:publisher="Iconscout" dc:date="2018-01-30" dc:format="image/svg+xml" dc:language="en"><dc:creator><rdf:Bag><rdf:li>Roundicons.com</rdf:li></rdf:Bag></dc:creator></rdf:Description></rdf:RDF></metadata></svg>