<?xml version="1.0" encoding="UTF-8"?><svg xmlns="http://www.w3.org/2000/svg" xmlns:xlink="http://www.w3.org/1999/xlink" viewBox="0 0 48 48" version="1.1"><path d="M42.2 22.102L25.897 5.8C25.398 5.3 24.7 5 24 5c-.7 0-1.398.3-1.898.8l-3.5 3.5 4.097 4.098c.403-.199.801-.296 1.301-.296 1.7 0 3 1.296 3 3 0 .5-.102.898-.3 1.296l4 4c.402-.199.8-.296 1.3-.296 1.7 0 3 1.296 3 3 0 1.699-1.3 3-3 3s-3-1.301-3-3c0-.5.102-.903.3-1.301l-4-4c-.1 0-.198.097-.3.097v10.403c1.2.398 2 1.5 2 2.8 0 1.7-1.3 3-3 3s-3-1.3-3-3c0-1.3.8-2.402 2-2.8V18.8c-1.2-.403-2-1.5-2-2.801 0-.5.102-.898.3-1.3l-4.1-4.098-11.4 11.5C5.3 22.602 5 23.3 5 24c0 .7.3 1.398.8 1.898L22.103 42.2c.5.5 1.199.801 1.898.801.7 0 1.398-.3 1.898-.8L42.2 25.897c.5-.5.801-1.199.801-1.898 0-.7-.3-1.398-.8-1.898z" fill="#F4511E" id="surface1"/><metadata><rdf:RDF xmlns:rdf="http://www.w3.org/1999/02/22-rdf-syntax-ns#" xmlns:rdfs="http://www.w3.org/2000/01/rdf-schema#" xmlns:dc="http://purl.org/dc/elements/1.1/"><rdf:Description about="https://iconscout.com/legal#licenses" dc:title="git" dc:description="git" dc:publisher="Iconscout" dc:date="2017-12-15" dc:format="image/svg+xml" dc:language="en"><dc:creator><rdf:Bag><rdf:li>Icons8</rdf:li></rdf:Bag></dc:creator></rdf:Description></rdf:RDF></metadata></svg>